<?xml version="1.0" encoding="utf-8"?>
<svg id="master-artboard" viewBox="0 0 65 65" version="1.1" xmlns="http://www.w3.org/2000/svg" x="0px" y="0px" style="enable-background:new 0 0 336 235.2;" width="65px" height="65px"><rect id="ee-background" x="0" y="0" width="65" height="65" style="fill: white; fill-opacity: 0; pointer-events: none;"/><defs><style id="ee-google-fonts">@import url(https://fonts.googleapis.com/css?family=Audiowide:400);</style><style id="style-1">@import url(https://fonts.googleapis.com/css?family=Alex+Brush:400);</style></defs>





















































































































































<g transform="matrix(0.5909091234207152, 0, 0, 0.5909091234207152, -0.9615047426423189, -0.7084193749128431)"><rect id="rect-1" x="0" y="0" width="110" height="110" style="fill: white; fill-opacity: 0; pointer-events: none;"/><path d="M 34.939998626708984 -8.270000457763672 C 35.53333282470703 -8.270000457763672 35.83000183105469 -8.059999465942383 35.83000183105469 -7.6399993896484375 C 35.83000183105469 -5.933332443237305 33.47666549682617 -1.0499992370605469 28.770000457763672 7.010000228881836 C 28.963333129882812 7.770000457763672 29.270000457763672 8.65333366394043 29.690000534057617 9.65999984741211 L 42.209999084472656 0.12999916076660156 C 46.996665954589844 -3.510000228881836 50.22999954223633 -5.850000381469727 51.90999984741211 -6.8899993896484375 C 55.663333892822266 -9.129999160766602 59.3466682434082 -10.25 62.959999084472656 -10.25 C 63.99333190917969 -10.25 64.9433364868164 -10.079999923706055 65.80999755859375 -9.739999771118164 C 66.34333038330078 -9.546667098999023 66.61000061035156 -9.183332443237305 66.61000061035156 -8.649999618530273 C 66.61000061035156 -8.116666793823242 66.47000122070312 -7.850000381469727 66.19000244140625 -7.850000381469727 C 66.02333068847656 -7.850000381469727 65.8499984741211 -7.9633331298828125 65.66999816894531 -8.190000534057617 C 65.48332977294922 -8.416666030883789 64.94999694824219 -8.530000686645508 64.06999969482422 -8.530000686645508 C 63.189998626708984 -8.530000686645508 61.75666809082031 -8.303333282470703 59.77000045776367 -7.850000381469727 C 56.630001068115234 -7.149999618530273 53.073333740234375 -5.583333969116211 49.099998474121094 -3.1499996185302734 C 46.606666564941406 -1.6100006103515625 43.27333450317383 0.7566661834716797 39.099998474121094 3.950000762939453 C 34.926666259765625 7.143333435058594 31.91666603088379 9.34000015258789 30.06999969482422 10.539999961853027 C 31.496665954589844 13.539999961853027 33.33000183105469 16.32666778564453 35.56999969482422 18.899999618530273 C 39.016666412353516 22.906665802001953 42.11333465576172 24.90999984741211 44.86000061035156 24.90999984741211 C 46.20000076293945 24.90999984741211 46.869998931884766 24.389999389648438 46.869998931884766 23.350000381469727 C 46.869998931884766 23.156665802001953 46.849998474121094 22.959999084472656 46.810001373291016 22.760000228881836 C 46.77000045776367 22.566667556762695 46.81999969482422 22.329999923706055 46.959999084472656 22.049999237060547 C 47.099998474121094 21.770000457763672 47.266666412353516 21.6299991607666 47.459999084472656 21.6299991607666 C 47.82666778564453 21.6299991607666 48.063331604003906 22.06333351135254 48.16999816894531 22.93000030517578 C 48.20333480834961 23.06999969482422 48.220001220703125 23.209999084472656 48.220001220703125 23.350000381469727 C 48.220001220703125 24.25 47.76333236694336 24.98666763305664 46.849998474121094 25.559999465942383 C 45.94333267211914 26.133333206176758 44.86666488647461 26.420000076293945 43.619998931884766 26.420000076293945 C 42.37333297729492 26.420000076293945 41.33000183105469 26.22333335876465 40.4900016784668 25.829999923706055 C 38.276668548583984 24.73666763305664 36.0433349609375 22.81999969482422 33.790000915527344 20.079999923706055 C 31.536666870117188 17.33333396911621 29.80666732788086 14.446666717529297 28.600000381469727 11.420000076293945 C 27.059999465942383 12.319999694824219 25.786666870117188 12.8100004196167 24.780000686645508 12.890000343322754 C 22.906665802001953 15.329999923706055 20.59666633605957 17.696666717529297 17.850000381469727 19.989999771118164 C 16.363332748413086 21.25 14.75333309173584 22.266666412353516 13.020000457763672 23.040000915527344 C 11.286666870117188 23.80666732788086 9.619999885559082 24.190000534057617 8.020000457763672 24.190000534057617 C 5.753333568572998 24.190000534057617 4.003333568572998 23.623332977294922 2.7699999809265137 22.489999771118164 C 1.5366666316986084 21.356666564941406 0.9200000166893005 19.626667022705078 0.9200000166893005 17.299999237060547 C 0.9200000166893005 16.15333366394043 1.1466666460037231 15.09000015258789 1.600000023841858 14.110000610351562 C 3.0266666412353516 10.949999809265137 5.179999828338623 8.766666412353516 8.0600004196167 7.560000419616699 C 9.65999984741211 6.859999656677246 11.25 6.510000228881836 12.829999923706055 6.510000228881836 C 14.40999984741211 6.510000228881836 15.466666221618652 7.026666641235352 16 8.0600004196167 C 16.200000762939453 8.426666259765625 16.299999237060547 8.813333511352539 16.299999237060547 9.220000267028809 C 16.299999237060547 9.626667022705078 16.24333381652832 9.886666297912598 16.1299991607666 10 C 16.016666412353516 10.106666564941406 15.863333702087402 10.006667137145996 15.670000076293945 9.699999809265137 C 14.99666690826416 8.466666221618652 14.279999732971191 7.779999732971191 13.520000457763672 7.640000343322754 C 13.020000457763672 7.586667060852051 12.65666675567627 7.560000419616699 12.430000305175781 7.560000419616699 C 10.25 7.560000419616699 8.206666946411133 8.470000267028809 6.300000190734863 10.289999961853027 C 3.8333332538604736 12.670000076293945 2.5999999046325684 15.246665954589844 2.5999999046325684 18.020000457763672 C 2.5999999046325684 21.040000915527344 4.309999942779541 22.746665954589844 7.730000019073486 23.139999389648438 C 7.8433332443237305 23.139999389648438 7.953333377838135 23.139999389648438 8.0600004196167 23.139999389648438 C 9.293333053588867 23.139999389648438 10.876667022705078 22.593334197998047 12.8100004196167 21.5 C 15.943333625793457 19.713333129882812 19.290000915527344 16.633333206176758 22.850000381469727 12.260000228881836 C 22.203332901000977 11.673333168029785 21.8799991607666 10.806666374206543 21.8799991607666 9.65999984741211 C 21.8799991607666 8.513333320617676 22.30666732788086 7.426666259765625 23.15999984741211 6.399999618530273 C 24.013334274291992 5.380000114440918 25.183332443237305 4.870000839233398 26.670000076293945 4.870000839233398 C 27.09000015258789 4.870000839233398 27.483333587646484 4.913333892822266 27.850000381469727 5 C 29.25 2.64666748046875 30.606666564941406 0.10333251953125 31.920000076293945 -2.6299991607666016 C 33.233333587646484 -5.356666564941406 33.88999938964844 -6.930000305175781 33.88999938964844 -7.350000381469727 C 33.88999938964844 -7.40333366394043 33.80666732788086 -7.430000305175781 33.63999938964844 -7.430000305175781 C 33.473331451416016 -7.430000305175781 32.5 -6.989999771118164 30.719999313354492 -6.1100006103515625 C 28.946666717529297 -5.229999542236328 27.68000030517578 -4.5366668701171875 26.920000076293945 -4.030000686645508 C 26.16666603088379 -3.530000686645508 25.24333381652832 -2.739999771118164 24.149999618530273 -1.6599998474121094 C 23.05666732788086 -0.5799999237060547 22.510000228881836 0.29666709899902344 22.510000228881836 0.9699993133544922 C 22.510000228881836 1.2766666412353516 22.726667404174805 1.583333969116211 23.15999984741211 1.8899993896484375 C 23.593334197998047 2.196666717529297 24.386667251586914 2.3500003814697266 25.540000915527344 2.3500003814697266 C 25.68000030517578 2.4099998474121094 25.75 2.486665725708008 25.75 2.5799999237060547 C 25.75 2.6800003051757812 25.363332748413086 2.793333053588867 24.59000015258789 2.9200000762939453 C 23.823333740234375 3.0466670989990234 23.213333129882812 3.1100006103515625 22.760000228881836 3.1100006103515625 C 21.753334045410156 3.1100006103515625 21.25 2.690000534057617 21.25 1.8500003814697266 C 21.25 0.8700008392333984 21.85333251953125 -0.3066673278808594 23.059999465942383 -1.6800003051757812 C 24.260000228881836 -3.053333282470703 25.5766658782959 -4.129999160766602 27.010000228881836 -4.909999847412109 C 31.176666259765625 -7.149999618530273 33.81999969482422 -8.270000457763672 34.939998626708984 -8.270000457763672 M 28.270000457763672 10.539999961853027 C 28.043333053588867 9.979999542236328 27.860000610351562 9.420000076293945 27.719999313354492 8.859999656677246 C 27.15999984741211 9.673333168029785 26.600000381469727 10.473333358764648 26.040000915527344 11.260000228881836 C 26.31999969482422 11.260000228881836 26.573333740234375 11.236666679382324 26.799999237060547 11.1899995803833 C 27.020000457763672 11.149999618530273 27.510000228881836 10.933333396911621 28.270000457763672 10.539999961853027 M 26.670000076293945 6.930000305175781 C 26.336666107177734 6.789999961853027 25.96666717529297 6.720000267028809 25.559999465942383 6.720000267028809 C 25.15333366394043 6.720000267028809 24.746665954589844 6.973333358764648 24.34000015258789 7.479999542236328 C 23.933332443237305 7.979999542236328 23.729999542236328 8.516666412353516 23.729999542236328 9.09000015258789 C 23.729999542236328 9.66333293914795 23.883333206176758 10.146666526794434 24.190000534057617 10.539999961853027 C 25.56333351135254 8.579999923706055 26.389999389648438 7.376667022705078 26.670000076293945 6.930000305175781 ZM 89.54168701171875 2.229999542236328 C 89.54168701171875 3.656665802001953 88.82835388183594 5.223333358764648 87.40168762207031 6.930000305175781 C 85.97502136230469 8.636666297912598 83.81169128417969 10.023333549499512 80.91168975830078 11.09000015258789 C 78.01168823242188 12.149999618530273 75.19835662841797 12.680000305175781 72.47169494628906 12.680000305175781 C 69.73835754394531 12.680000305175781 67.57502746582031 12.329999923706055 65.981689453125 11.630000114440918 C 62.45502471923828 16.809999465942383 60.158355712890625 19.933332443237305 59.09169006347656 21 C 56.071693420410156 24.02666664123535 52.461692810058594 25.540000915527344 48.26169204711914 25.540000915527344 C 45.881690979003906 25.540000915527344 44.09502410888672 24.98666763305664 42.90169143676758 23.880001068115234 C 41.715023040771484 22.773332595825195 41.1216926574707 21.336666107177734 41.1216926574707 19.56999969482422 C 41.1216926574707 17.136667251586914 42.10169219970703 14.84000015258789 44.06169128417969 12.680000305175781 C 46.215023040771484 10.300000190734863 48.92835998535156 9.109999656677246 52.201690673828125 9.109999656677246 C 53.54835891723633 9.109999656677246 54.68502426147461 9.420000076293945 55.611690521240234 10.039999961853027 C 56.53169250488281 10.65333366394043 56.99169158935547 11.59000015258789 56.99169158935547 12.850000381469727 C 56.99169158935547 13.690000534057617 56.51502227783203 14.699999809265137 55.56169128417969 15.880000114440918 C 54.61502456665039 17.053333282470703 54.028358459472656 17.639999389648438 53.80168914794922 17.639999389648438 C 53.74835968017578 17.639999389648438 53.7216911315918 17.58333396911621 53.7216911315918 17.469999313354492 C 53.7216911315918 17.356666564941406 53.76169204711914 17.246665954589844 53.84169006347656 17.139999389648438 C 54.74169158935547 15.819999694824219 55.19169235229492 14.606666564941406 55.19169235229492 13.5 C 55.19169235229492 12.393333435058594 54.848358154296875 11.539999961853027 54.16168975830078 10.9399995803833 C 53.47502517700195 10.34000015258789 52.62835693359375 10.039999961853027 51.6216926574707 10.039999961853027 C 49.26835632324219 10.039999961853027 47.188358306884766 11.109999656677246 45.381690979003906 13.25 C 43.57502365112305 15.389999389648438 42.67169189453125 17.553333282470703 42.67169189453125 19.739999771118164 C 42.67169189453125 21.139999389648438 43.111690521240234 22.273332595825195 43.99169158935547 23.139999389648438 C 44.87835693359375 24.00666618347168 46.245025634765625 24.440000534057617 48.09169006347656 24.440000534057617 C 51.53169250488281 24.440000534057617 54.485023498535156 23.280000686645508 56.951690673828125 20.959999084472656 C 58.37835693359375 19.613332748413086 59.821693420410156 17.65333366394043 61.28169250488281 15.079999923706055 L 64.93169403076172 8.479999542236328 C 66.72502136230469 5.600000381469727 68.81169128417969 1.3166675567626953 71.19168853759766 -4.370000839233398 C 70.9383544921875 -4.370000839233398 70.68502807617188 -4.370000839233398 70.43169403076172 -4.370000839233398 C 66.65168762207031 -4.370000839233398 62.858360290527344 -3.956666946411133 59.05168914794922 -3.1299991607666016 C 55.245025634765625 -2.303333282470703 52.361690521240234 -1.1200008392333984 50.40169143676758 0.4200000762939453 C 49.56169128417969 1.0666675567626953 49.141693115234375 1.6966667175292969 49.141693115234375 2.309999465942383 C 49.141693115234375 2.9233341217041016 49.4716911315918 3.4200000762939453 50.131690979003906 3.799999237060547 C 50.78502655029297 4.180000305175781 51.56169128417969 4.370000839233398 52.461692810058594 4.370000839233398 C 53.35502624511719 4.370000839233398 54.46502685546875 4.193332672119141 55.791690826416016 3.8400001525878906 C 57.125022888183594 3.4933338165283203 58.12835693359375 3.0266666412353516 58.80168914794922 2.440000534057617 C 59.08169174194336 2.2133331298828125 59.278358459472656 2.1000003814697266 59.391693115234375 2.1000003814697266 C 59.611690521240234 2.1000003814697266 59.65169143676758 2.2133331298828125 59.51169204711914 2.440000534057617 C 58.50502395629883 3.613332748413086 56.978355407714844 4.49333381652832 54.93169021606445 5.079999923706055 C 53.67169189453125 5.446666717529297 52.42835998535156 5.630000114440918 51.201690673828125 5.630000114440918 C 49.96835708618164 5.630000114440918 48.95835876464844 5.356666564941406 48.17169189453125 4.809999465942383 C 47.391693115234375 4.263334274291992 47.00168991088867 3.520000457763672 47.00168991088867 2.5799999237060547 C 47.00168991088867 1.64666748046875 47.50502395629883 0.7033329010009766 48.51169204711914 -0.25 C 50.41168975830078 -2.0966663360595703 53.81169128417969 -3.469999313354492 58.711692810058594 -4.370000839233398 C 62.18502426147461 -4.983333587646484 66.1750259399414 -5.290000915527344 70.68169403076172 -5.290000915527344 C 71.04835510253906 -5.290000915527344 71.42835998535156 -5.290000915527344 71.82168579101562 -5.290000915527344 C 72.43502807617188 -5.823333740234375 72.99502563476562 -6.090000152587891 73.50169372558594 -6.090000152587891 C 74.00169372558594 -6.090000152587891 74.25169372558594 -5.893333435058594 74.25169372558594 -5.5 C 74.25169372558594 -5.420000076293945 74.23835754394531 -5.323333740234375 74.2116928100586 -5.209999084472656 C 78.55169677734375 -4.90333366394043 82.06502532958984 -4.173334121704102 84.75169372558594 -3.020000457763672 C 87.94502258300781 -1.6800003051757812 89.54168701171875 0.06999969482421875 89.54168701171875 2.229999542236328 M 87.57168579101562 1.8099994659423828 C 87.57168579101562 0.04333305358886719 86.14169311523438 -1.3999996185302734 83.28169250488281 -2.520000457763672 C 80.79502868652344 -3.5 77.6750259399414 -4.086666107177734 73.92169189453125 -4.280000686645508 L 72.57168579101562 -0.07999992370605469 C 71.51168823242188 2.5466670989990234 69.46835327148438 6.2133331298828125 66.44168853759766 10.920000076293945 C 66.72169494628906 11.0600004196167 67.19835662841797 11.213333129882812 67.87168884277344 11.380000114440918 C 68.99169158935547 11.579999923706055 69.85836029052734 11.680000305175781 70.47169494628906 11.680000305175781 C 72.60502624511719 11.680000305175781 75.05502319335938 11.236666679382324 77.82168579101562 10.350000381469727 C 80.59502410888672 9.470000267028809 82.91502380371094 8.183333396911621 84.78169250488281 6.489999771118164 C 86.64169311523438 4.796667098999023 87.57168579101562 3.236665725708008 87.57168579101562 1.8099994659423828 Z" transform="matrix(1.1917494535446167, 0, 0, 1.1917494535446167, 2.161611795425415, 18.086990356445312)" style="fill: rgb(118, 116, 120); white-space: pre; color: rgb(51, 51, 51);"/><path d="M 34.939998626708984 -8.270000457763672 C 35.53333282470703 -8.270000457763672 35.83000183105469 -8.059999465942383 35.83000183105469 -7.6399993896484375 C 35.83000183105469 -5.933332443237305 33.47666549682617 -1.0499992370605469 28.770000457763672 7.010000228881836 C 28.963333129882812 7.770000457763672 29.270000457763672 8.65333366394043 29.690000534057617 9.65999984741211 L 42.209999084472656 0.12999916076660156 C 46.996665954589844 -3.510000228881836 50.22999954223633 -5.850000381469727 51.90999984741211 -6.8899993896484375 C 55.663333892822266 -9.129999160766602 59.3466682434082 -10.25 62.959999084472656 -10.25 C 63.99333190917969 -10.25 64.9433364868164 -10.079999923706055 65.80999755859375 -9.739999771118164 C 66.34333038330078 -9.546667098999023 66.61000061035156 -9.183332443237305 66.61000061035156 -8.649999618530273 C 66.61000061035156 -8.116666793823242 66.47000122070312 -7.850000381469727 66.19000244140625 -7.850000381469727 C 66.02333068847656 -7.850000381469727 65.8499984741211 -7.9633331298828125 65.66999816894531 -8.190000534057617 C 65.48332977294922 -8.416666030883789 64.94999694824219 -8.530000686645508 64.06999969482422 -8.530000686645508 C 63.189998626708984 -8.530000686645508 61.75666809082031 -8.303333282470703 59.77000045776367 -7.850000381469727 C 56.630001068115234 -7.149999618530273 53.073333740234375 -5.583333969116211 49.099998474121094 -3.1499996185302734 C 46.606666564941406 -1.6100006103515625 43.27333450317383 0.7566661834716797 39.099998474121094 3.950000762939453 C 34.926666259765625 7.143333435058594 31.91666603088379 9.34000015258789 30.06999969482422 10.539999961853027 C 31.496665954589844 13.539999961853027 33.33000183105469 16.32666778564453 35.56999969482422 18.899999618530273 C 39.016666412353516 22.906665802001953 42.11333465576172 24.90999984741211 44.86000061035156 24.90999984741211 C 46.20000076293945 24.90999984741211 46.869998931884766 24.389999389648438 46.869998931884766 23.350000381469727 C 46.869998931884766 23.156665802001953 46.849998474121094 22.959999084472656 46.810001373291016 22.760000228881836 C 46.77000045776367 22.566667556762695 46.81999969482422 22.329999923706055 46.959999084472656 22.049999237060547 C 47.099998474121094 21.770000457763672 47.266666412353516 21.6299991607666 47.459999084472656 21.6299991607666 C 47.82666778564453 21.6299991607666 48.063331604003906 22.06333351135254 48.16999816894531 22.93000030517578 C 48.20333480834961 23.06999969482422 48.220001220703125 23.209999084472656 48.220001220703125 23.350000381469727 C 48.220001220703125 24.25 47.76333236694336 24.98666763305664 46.849998474121094 25.559999465942383 C 45.94333267211914 26.133333206176758 44.86666488647461 26.420000076293945 43.619998931884766 26.420000076293945 C 42.37333297729492 26.420000076293945 41.33000183105469 26.22333335876465 40.4900016784668 25.829999923706055 C 38.276668548583984 24.73666763305664 36.0433349609375 22.81999969482422 33.790000915527344 20.079999923706055 C 31.536666870117188 17.33333396911621 29.80666732788086 14.446666717529297 28.600000381469727 11.420000076293945 C 27.059999465942383 12.319999694824219 25.786666870117188 12.8100004196167 24.780000686645508 12.890000343322754 C 22.906665802001953 15.329999923706055 20.59666633605957 17.696666717529297 17.850000381469727 19.989999771118164 C 16.363332748413086 21.25 14.75333309173584 22.266666412353516 13.020000457763672 23.040000915527344 C 11.286666870117188 23.80666732788086 9.619999885559082 24.190000534057617 8.020000457763672 24.190000534057617 C 5.753333568572998 24.190000534057617 4.003333568572998 23.623332977294922 2.7699999809265137 22.489999771118164 C 1.5366666316986084 21.356666564941406 0.9200000166893005 19.626667022705078 0.9200000166893005 17.299999237060547 C 0.9200000166893005 16.15333366394043 1.1466666460037231 15.09000015258789 1.600000023841858 14.110000610351562 C 3.0266666412353516 10.949999809265137 5.179999828338623 8.766666412353516 8.0600004196167 7.560000419616699 C 9.65999984741211 6.859999656677246 11.25 6.510000228881836 12.829999923706055 6.510000228881836 C 14.40999984741211 6.510000228881836 15.466666221618652 7.026666641235352 16 8.0600004196167 C 16.200000762939453 8.426666259765625 16.299999237060547 8.813333511352539 16.299999237060547 9.220000267028809 C 16.299999237060547 9.626667022705078 16.24333381652832 9.886666297912598 16.1299991607666 10 C 16.016666412353516 10.106666564941406 15.863333702087402 10.006667137145996 15.670000076293945 9.699999809265137 C 14.99666690826416 8.466666221618652 14.279999732971191 7.779999732971191 13.520000457763672 7.640000343322754 C 13.020000457763672 7.586667060852051 12.65666675567627 7.560000419616699 12.430000305175781 7.560000419616699 C 10.25 7.560000419616699 8.206666946411133 8.470000267028809 6.300000190734863 10.289999961853027 C 3.8333332538604736 12.670000076293945 2.5999999046325684 15.246665954589844 2.5999999046325684 18.020000457763672 C 2.5999999046325684 21.040000915527344 4.309999942779541 22.746665954589844 7.730000019073486 23.139999389648438 C 7.8433332443237305 23.139999389648438 7.953333377838135 23.139999389648438 8.0600004196167 23.139999389648438 C 9.293333053588867 23.139999389648438 10.876667022705078 22.593334197998047 12.8100004196167 21.5 C 15.943333625793457 19.713333129882812 19.290000915527344 16.633333206176758 22.850000381469727 12.260000228881836 C 22.203332901000977 11.673333168029785 21.8799991607666 10.806666374206543 21.8799991607666 9.65999984741211 C 21.8799991607666 8.513333320617676 22.30666732788086 7.426666259765625 23.15999984741211 6.399999618530273 C 24.013334274291992 5.380000114440918 25.183332443237305 4.870000839233398 26.670000076293945 4.870000839233398 C 27.09000015258789 4.870000839233398 27.483333587646484 4.913333892822266 27.850000381469727 5 C 29.25 2.64666748046875 30.606666564941406 0.10333251953125 31.920000076293945 -2.6299991607666016 C 33.233333587646484 -5.356666564941406 33.88999938964844 -6.930000305175781 33.88999938964844 -7.350000381469727 C 33.88999938964844 -7.40333366394043 33.80666732788086 -7.430000305175781 33.63999938964844 -7.430000305175781 C 33.473331451416016 -7.430000305175781 32.5 -6.989999771118164 30.719999313354492 -6.1100006103515625 C 28.946666717529297 -5.229999542236328 27.68000030517578 -4.5366668701171875 26.920000076293945 -4.030000686645508 C 26.16666603088379 -3.530000686645508 25.24333381652832 -2.739999771118164 24.149999618530273 -1.6599998474121094 C 23.05666732788086 -0.5799999237060547 22.510000228881836 0.29666709899902344 22.510000228881836 0.9699993133544922 C 22.510000228881836 1.2766666412353516 22.726667404174805 1.583333969116211 23.15999984741211 1.8899993896484375 C 23.593334197998047 2.196666717529297 24.386667251586914 2.3500003814697266 25.540000915527344 2.3500003814697266 C 25.68000030517578 2.4099998474121094 25.75 2.486665725708008 25.75 2.5799999237060547 C 25.75 2.6800003051757812 25.363332748413086 2.793333053588867 24.59000015258789 2.9200000762939453 C 23.823333740234375 3.0466670989990234 23.213333129882812 3.1100006103515625 22.760000228881836 3.1100006103515625 C 21.753334045410156 3.1100006103515625 21.25 2.690000534057617 21.25 1.8500003814697266 C 21.25 0.8700008392333984 21.85333251953125 -0.3066673278808594 23.059999465942383 -1.6800003051757812 C 24.260000228881836 -3.053333282470703 25.5766658782959 -4.129999160766602 27.010000228881836 -4.909999847412109 C 31.176666259765625 -7.149999618530273 33.81999969482422 -8.270000457763672 34.939998626708984 -8.270000457763672 M 28.270000457763672 10.539999961853027 C 28.043333053588867 9.979999542236328 27.860000610351562 9.420000076293945 27.719999313354492 8.859999656677246 C 27.15999984741211 9.673333168029785 26.600000381469727 10.473333358764648 26.040000915527344 11.260000228881836 C 26.31999969482422 11.260000228881836 26.573333740234375 11.236666679382324 26.799999237060547 11.1899995803833 C 27.020000457763672 11.149999618530273 27.510000228881836 10.933333396911621 28.270000457763672 10.539999961853027 M 26.670000076293945 6.930000305175781 C 26.336666107177734 6.789999961853027 25.96666717529297 6.720000267028809 25.559999465942383 6.720000267028809 C 25.15333366394043 6.720000267028809 24.746665954589844 6.973333358764648 24.34000015258789 7.479999542236328 C 23.933332443237305 7.979999542236328 23.729999542236328 8.516666412353516 23.729999542236328 9.09000015258789 C 23.729999542236328 9.66333293914795 23.883333206176758 10.146666526794434 24.190000534057617 10.539999961853027 C 25.56333351135254 8.579999923706055 26.389999389648438 7.376667022705078 26.670000076293945 6.930000305175781 ZM 89.54168701171875 2.229999542236328 C 89.54168701171875 3.656665802001953 88.82835388183594 5.223333358764648 87.40168762207031 6.930000305175781 C 85.97502136230469 8.636666297912598 83.81169128417969 10.023333549499512 80.91168975830078 11.09000015258789 C 78.01168823242188 12.149999618530273 75.19835662841797 12.680000305175781 72.47169494628906 12.680000305175781 C 69.73835754394531 12.680000305175781 67.57502746582031 12.329999923706055 65.981689453125 11.630000114440918 C 62.45502471923828 16.809999465942383 60.158355712890625 19.933332443237305 59.09169006347656 21 C 56.071693420410156 24.02666664123535 52.461692810058594 25.540000915527344 48.26169204711914 25.540000915527344 C 45.881690979003906 25.540000915527344 44.09502410888672 24.98666763305664 42.90169143676758 23.880001068115234 C 41.715023040771484 22.773332595825195 41.1216926574707 21.336666107177734 41.1216926574707 19.56999969482422 C 41.1216926574707 17.136667251586914 42.10169219970703 14.84000015258789 44.06169128417969 12.680000305175781 C 46.215023040771484 10.300000190734863 48.92835998535156 9.109999656677246 52.201690673828125 9.109999656677246 C 53.54835891723633 9.109999656677246 54.68502426147461 9.420000076293945 55.611690521240234 10.039999961853027 C 56.53169250488281 10.65333366394043 56.99169158935547 11.59000015258789 56.99169158935547 12.850000381469727 C 56.99169158935547 13.690000534057617 56.51502227783203 14.699999809265137 55.56169128417969 15.880000114440918 C 54.61502456665039 17.053333282470703 54.028358459472656 17.639999389648438 53.80168914794922 17.639999389648438 C 53.74835968017578 17.639999389648438 53.7216911315918 17.58333396911621 53.7216911315918 17.469999313354492 C 53.7216911315918 17.356666564941406 53.76169204711914 17.246665954589844 53.84169006347656 17.139999389648438 C 54.74169158935547 15.819999694824219 55.19169235229492 14.606666564941406 55.19169235229492 13.5 C 55.19169235229492 12.393333435058594 54.848358154296875 11.539999961853027 54.16168975830078 10.9399995803833 C 53.47502517700195 10.34000015258789 52.62835693359375 10.039999961853027 51.6216926574707 10.039999961853027 C 49.26835632324219 10.039999961853027 47.188358306884766 11.109999656677246 45.381690979003906 13.25 C 43.57502365112305 15.389999389648438 42.67169189453125 17.553333282470703 42.67169189453125 19.739999771118164 C 42.67169189453125 21.139999389648438 43.111690521240234 22.273332595825195 43.99169158935547 23.139999389648438 C 44.87835693359375 24.00666618347168 46.245025634765625 24.440000534057617 48.09169006347656 24.440000534057617 C 51.53169250488281 24.440000534057617 54.485023498535156 23.280000686645508 56.951690673828125 20.959999084472656 C 58.37835693359375 19.613332748413086 59.821693420410156 17.65333366394043 61.28169250488281 15.079999923706055 L 64.93169403076172 8.479999542236328 C 66.72502136230469 5.600000381469727 68.81169128417969 1.3166675567626953 71.19168853759766 -4.370000839233398 C 70.9383544921875 -4.370000839233398 70.68502807617188 -4.370000839233398 70.43169403076172 -4.370000839233398 C 66.65168762207031 -4.370000839233398 62.858360290527344 -3.956666946411133 59.05168914794922 -3.1299991607666016 C 55.245025634765625 -2.303333282470703 52.361690521240234 -1.1200008392333984 50.40169143676758 0.4200000762939453 C 49.56169128417969 1.0666675567626953 49.141693115234375 1.6966667175292969 49.141693115234375 2.309999465942383 C 49.141693115234375 2.9233341217041016 49.4716911315918 3.4200000762939453 50.131690979003906 3.799999237060547 C 50.78502655029297 4.180000305175781 51.56169128417969 4.370000839233398 52.461692810058594 4.370000839233398 C 53.35502624511719 4.370000839233398 54.46502685546875 4.193332672119141 55.791690826416016 3.8400001525878906 C 57.125022888183594 3.4933338165283203 58.12835693359375 3.0266666412353516 58.80168914794922 2.440000534057617 C 59.08169174194336 2.2133331298828125 59.278358459472656 2.1000003814697266 59.391693115234375 2.1000003814697266 C 59.611690521240234 2.1000003814697266 59.65169143676758 2.2133331298828125 59.51169204711914 2.440000534057617 C 58.50502395629883 3.613332748413086 56.978355407714844 4.49333381652832 54.93169021606445 5.079999923706055 C 53.67169189453125 5.446666717529297 52.42835998535156 5.630000114440918 51.201690673828125 5.630000114440918 C 49.96835708618164 5.630000114440918 48.95835876464844 5.356666564941406 48.17169189453125 4.809999465942383 C 47.391693115234375 4.263334274291992 47.00168991088867 3.520000457763672 47.00168991088867 2.5799999237060547 C 47.00168991088867 1.64666748046875 47.50502395629883 0.7033329010009766 48.51169204711914 -0.25 C 50.41168975830078 -2.0966663360595703 53.81169128417969 -3.469999313354492 58.711692810058594 -4.370000839233398 C 62.18502426147461 -4.983333587646484 66.1750259399414 -5.290000915527344 70.68169403076172 -5.290000915527344 C 71.04835510253906 -5.290000915527344 71.42835998535156 -5.290000915527344 71.82168579101562 -5.290000915527344 C 72.43502807617188 -5.823333740234375 72.99502563476562 -6.090000152587891 73.50169372558594 -6.090000152587891 C 74.00169372558594 -6.090000152587891 74.25169372558594 -5.893333435058594 74.25169372558594 -5.5 C 74.25169372558594 -5.420000076293945 74.23835754394531 -5.323333740234375 74.2116928100586 -5.209999084472656 C 78.55169677734375 -4.90333366394043 82.06502532958984 -4.173334121704102 84.75169372558594 -3.020000457763672 C 87.94502258300781 -1.6800003051757812 89.54168701171875 0.06999969482421875 89.54168701171875 2.229999542236328 M 87.57168579101562 1.8099994659423828 C 87.57168579101562 0.04333305358886719 86.14169311523438 -1.3999996185302734 83.28169250488281 -2.520000457763672 C 80.79502868652344 -3.5 77.6750259399414 -4.086666107177734 73.92169189453125 -4.280000686645508 L 72.57168579101562 -0.07999992370605469 C 71.51168823242188 2.5466670989990234 69.46835327148438 6.2133331298828125 66.44168853759766 10.920000076293945 C 66.72169494628906 11.0600004196167 67.19835662841797 11.213333129882812 67.87168884277344 11.380000114440918 C 68.99169158935547 11.579999923706055 69.85836029052734 11.680000305175781 70.47169494628906 11.680000305175781 C 72.60502624511719 11.680000305175781 75.05502319335938 11.236666679382324 77.82168579101562 10.350000381469727 C 80.59502410888672 9.470000267028809 82.91502380371094 8.183333396911621 84.78169250488281 6.489999771118164 C 86.64169311523438 4.796667098999023 87.57168579101562 3.236665725708008 87.57168579101562 1.8099994659423828 Z" transform="matrix(1.1917494535446167, 0, 0, 1.1917494535446167, 1.1843842267990112, 64.01622009277344)" style="fill: rgb(31, 59, 219); white-space: pre; color: rgb(51, 51, 51);"/></g></svg>